<svg data-v-bb585d4e="" xmlns="http://www.w3.org/2000/svg" width="160" height="57" viewBox="0 0 160 57" fill="none"><path data-v-bb585d4e="" fill-rule="evenodd" clip-rule="evenodd" d="M52 5H4C1.79086 5 0 6.79086 0 9V53C0 55.2091 1.79086 57 4 57H156C158.209 57 160 55.2091 160 53V9C160 6.79086 158.209 5 156 5H108V8C108 9.65685 106.657 11 105 11C103.343 11 102 9.65685 102 8V5H58V8C58 9.65685 56.6569 11 55 11C53.3431 11 52 9.65685 52 8V5Z" fill="white"></path><path data-v-bb585d4e="" d="M52 5H4C1.79086 5 0 6.79086 0 9V14H160V9C160 6.79086 158.209 5 156 5H108V8C108 9.65685 106.657 11 105 11C103.343 11 102 9.65685 102 8V5H58V8C58 9.65685 56.6569 11 55 11C53.3431 11 52 9.65685 52 8V5Z" fill="#FFC56D"></path><path data-v-bb585d4e="" d="M53 2C53 0.89543 53.8954 0 55 0C56.1046 0 57 0.895431 57 2V8C57 9.10457 56.1046 10 55 10C53.8954 10 53 9.10457 53 8V2Z" fill="#FFC56D"></path><path data-v-bb585d4e="" d="M103 2C103 0.89543 103.895 0 105 0C106.105 0 107 0.895431 107 2V8C107 9.10457 106.105 10 105 10C103.895 10 103 9.10457 103 8V2Z" fill="#FFC56D"></path><path data-v-bb585d4e="" d="M80 26V46" stroke="#E8E8E8" stroke-linecap="round"></path></svg>