<svg xmlns="http://www.w3.org/2000/svg" width="187" height="70" viewBox="0 0 187 70" fill="none" data-v-7a1b9eae=""><path fill-rule="evenodd" clip-rule="evenodd" d="M14 8H38.7843L44.9804 13.8099V57.5775L39.1716 63H14V8ZM21.1642 15.1655H37.6225V55.6408H21.1642V15.1655Z" fill="url(#paint0_linear_84_6298)" data-v-7a1b9eae=""></path><path fill-rule="evenodd" clip-rule="evenodd" d="M48.8529 25.0423H68.0221L73.6373 30.8521V63H53.8873L48.0784 56.9965V43.8275L53.8873 38.2113H66.0858V32.2077H48.8529V25.0423ZM55.8235 44.6021H66.0858V56.0282H55.8235V44.6021Z" fill="url(#paint1_linear_84_6298)" data-v-7a1b9eae=""></path><path d="M84.4804 63H77.5098V30.6585L83.125 25.0423H92.0319L95.7108 29.1092L99.3897 25.0423H107.909L113.912 31.4331V63H106.167V32.9824H99.3897V63H92.0319V32.9824H84.4804V63Z" fill="url(#paint2_linear_84_6298)" data-v-7a1b9eae=""></path><path fill-rule="evenodd" clip-rule="evenodd" d="M117.784 25.0423H137.147L142.569 30.6585V63H123.206L117.01 56.8028V44.2148L123.206 38.2113H135.404V32.0141H117.784V25.0423ZM124.755 56.0282H135.598V44.4085H124.755V56.0282Z" fill="url(#paint3_linear_84_6298)" data-v-7a1b9eae=""></path><path d="M146.441 63H154.186V32.7887H164.255V63H172V30.6585L166.191 25.0423H152.056L146.441 30.6585V63Z" fill="url(#paint4_linear_84_6298)" data-v-7a1b9eae=""></path><defs data-v-7a1b9eae=""><linearGradient id="paint0_linear_84_6298" x1="93" y1="8" x2="93" y2="63" gradientUnits="userSpaceOnUse" data-v-7a1b9eae=""><stop stop-color="#F92020" data-v-7a1b9eae=""></stop><stop offset="1" stop-color="#F95220" data-v-7a1b9eae=""></stop></linearGradient><linearGradient id="paint1_linear_84_6298" x1="93" y1="8" x2="93" y2="63" gradientUnits="userSpaceOnUse" data-v-7a1b9eae=""><stop stop-color="#F92020" data-v-7a1b9eae=""></stop><stop offset="1" stop-color="#F95220" data-v-7a1b9eae=""></stop></linearGradient><linearGradient id="paint2_linear_84_6298" x1="93" y1="8" x2="93" y2="63" gradientUnits="userSpaceOnUse" data-v-7a1b9eae=""><stop stop-color="#F92020" data-v-7a1b9eae=""></stop><stop offset="1" stop-color="#F95220" data-v-7a1b9eae=""></stop></linearGradient><linearGradient id="paint3_linear_84_6298" x1="93" y1="8" x2="93" y2="63" gradientUnits="userSpaceOnUse" data-v-7a1b9eae=""><stop stop-color="#F92020" data-v-7a1b9eae=""></stop><stop offset="1" stop-color="#F95220" data-v-7a1b9eae=""></stop></linearGradient><linearGradient id="paint4_linear_84_6298" x1="93" y1="8" x2="93" y2="63" gradientUnits="userSpaceOnUse" data-v-7a1b9eae=""><stop stop-color="#F92020" data-v-7a1b9eae=""></stop><stop offset="1" stop-color="#F95220" data-v-7a1b9eae=""></stop></linearGradient></defs></svg>